P3
24 24
255
23 108 194  0 0 0  0 0 0  0 0 0  0 0 0  0 0 0
0 0 0  0 0 0  42 144 218  42 144 218  46 152 222  44 153 225
93 187 235  53 171 232  52 169 230  55 176 235  64 181 237  68 185 240
0 0 0  0 0 0  0 0 0  0 0 0  0 0 0  0 0 0
24 105 191  23 108 194  0 0 0  0 0 0  0 0 0  0 0 0
34 131 210  33 131 211  102 195 238  133 208 243  155 223 249  171 229 252
171 229 252  189 235 253  213 242 255  172 227 250  121 207 244  56 181 239
65 184 239  0 0 0  0 0 0  0 0 0  0 0 0  0 0 0
18 112 198  23 113 199  24 110 196  0 0 0  30 119 201  30 119 201
65 165 226  109 203 243  92 199 242  91 199 242  98 201 243  103 204 244
111 209 247  116 213 248  121 215 249  150 225 252  206 240 255  212 240 254
110 206 244  59 182 239  68 185 240  0 0 0  0 0 0  0 0 0
18 112 198  22 164 231  27 136 215  23 108 194  33 120 203  65 168 228
68 185 240  74 188 238  82 193 240  90 197 242  98 201 243  106 205 245
113 210 246  119 212 247  126 216 249  127 218 250  131 221 250  162 229 252
224 245 255  171 229 252  56 181 239  68 185 240  0 0 0  0 0 0
18 103 194  14 155 228  27 166 232  32 153 224  52 169 230  58 179 237
64 181 237  71 186 239  74 189 240  82 193 240  92 199 242  103 204 244
114 210 247  119 212 247  126 216 249  127 218 250  133 221 251  136 223 252
155 227 252  213 242 255  172 227 250  59 182 239  0 0 0  0 0 0
12 104 192  13 155 227  24 159 228  36 167 231  46 171 233  54 175 234
62 180 237  64 181 237  109 203 243  172 227 250  143 207 242  118 190 233
80 173 229  93 187 235  100 202 242  133 221 251  136 223 252  140 224 252
140 224 252  156 230 253  224 245 255  110 206 244  65 184 239  0 0 0
12 104 192  10 156 227  20 158 227  28 161 229  45 167 231  53 174 234
54 175 234  159 222 247  118 190 233  34 131 210  33 131 211  37 138 216
42 144 218  46 147 219  46 152 222  55 166 229  121 215 247  142 225 252
142 225 252  142 225 252  170 232 254  212 240 254  56 181 239  68 185 240
14 100 188  10 156 227  16 156 227  28 161 229  36 167 231  49 174 235
54 175 234  121 207 244  27 120 204  30 122 205  0 0 0  0 0 0
0 0 0  0 0 0  0 0 0  50 156 224  52 158 226  127 218 250
142 225 252  145 227 253  145 227 253  209 242 255  121 213 246  65 184 239
4 97 187  3 154 228  14 154 227  25 159 228  36 167 231  45 167 231
51 170 234  49 174 235  129 212 246  80 173 229  31 125 208  0 0 0
0 0 0  0 0 0  0 0 0  0 0 0  52 158 226  61 170 230
145 227 253  145 228 252  145 227 253  175 234 255  184 232 253  63 183 239
4 97 187  1 151 226  6 149 224  13 155 227  28 163 229  93 197 242
142 218 247  189 235 253  194 236 254  159 222 247  46 142 215  34 131 210
36 134 212  0 0 0  0 0 0  0 0 0  0 0 0  50 156 224
130 220 251  150 225 252  142 225 252  115 214 249  115 208 245  65 184 239
8 92 182  49 174 235  100 202 242  159 225 248  205 238 254  143 207 242
96 176 227  52 146 217  12 104 192  23 113 199  32 123 205  0 0 0
0 0 0  0 0 0  0 0 0  0 0 0  0 0 0  50 156 224
63 169 230  61 170 230  52 169 230  0 0 0  0 0 0  0 0 0
34 118 196  96 176 227  96 176 227  50 136 207  50 136 207  8 92 182
18 98 187  0 0 0  0 0 0  0 0 0  0 0 0  0 0 0
0 0 0  0 0 0  0 0 0  0 0 0  0 0 0  0 0 0
0 0 0  0 0 0  0 0 0  0 0 0  55 176 235  65 184 239
0 75 168  0 72 167  0 0 0  0 0 0  0 0 0  0 0 0
0 0 0  0 0 0  0 0 0  0 0 0  0 0 0  0 0 0
0 0 0  0 0 0  0 0 0  0 0 0  0 0 0  46 152 222
44 153 225  55 166 229  102 195 238  155 223 249  205 238 254  98 201 243
0 0 0  15 94 183  15 94 183  18 98 187  24 110 196  30 119 201
23 107 195  0 0 0  0 0 0  0 0 0  0 0 0  0 0 0
0 0 0  36 134 212  34 135 212  27 136 215  80 173 229  133 208 243
184 232 253  224 245 255  209 242 255  189 235 253  175 234 255  74 188 238
8 84 175  6 104 194  11 134 212  22 154 226  32 165 231  42 162 228
22 101 189  0 0 0  0 0 0  0 0 0  0 0 0  35 127 207
34 126 206  52 146 217  159 222 247  212 240 254  209 239 254  184 232 253
157 228 251  127 218 250  130 220 251  136 223 252  145 227 253  74 183 237
5 79 172  11 134 212  1 151 226  10 153 226  20 158 227  27 166 232
24 110 196  24 105 191  0 0 0  0 0 0  0 0 0  0 0 0
0 0 0  32 125 206  80 173 229  150 225 252  98 203 244  109 207 246
114 210 247  121 215 249  127 218 250  133 221 251  145 227 253  76 176 232
0 78 169  6 104 194  1 151 226  1 146 223  6 149 224  14 155 228
21 150 224  18 98 187  22 101 189  0 0 0  0 0 0  0 0 0
0 0 0  0 0 0  30 122 205  30 122 205  142 218 247  102 203 243
109 207 246  114 210 247  121 215 249  127 218 250  136 223 252  63 169 230
0 79 171  0 74 166  1 146 223  1 148 224  0 147 223  4 147 224
10 156 227  21 150 224  17 102 191  18 98 187  22 101 189  23 106 194
20 109 196  20 109 196  28 118 201  118 190 233  171 229 252  91 199 242
102 203 243  106 205 245  114 210 247  119 212 247  130 220 251  63 169 230
0 0 0  0 78 169  0 97 189  1 152 227  1 148 223  0 147 223
4 148 224  10 153 226  20 161 230  22 141 219  46 142 215  50 136 207
96 176 227  119 204 242  159 222 247  102 203 243  74 189 240  82 193 240
92 199 242  102 203 243  106 205 245  115 208 245  121 215 249  65 165 226
0 0 0  0 0 0  0 75 167  1 124 209  1 151 225  1 148 223
1 147 223  1 146 223  6 149 224  14 155 228  20 161 230  32 165 231
36 168 232  46 171 233  53 175 234  62 180 237  71 185 238  82 193 240
90 197 242  78 186 238  87 190 239  109 207 246  114 210 247  52 158 226
0 0 0  0 0 0  0 79 170  0 74 166  1 124 209  1 152 227
1 148 224  1 147 223  0 147 223  4 147 224  10 153 226  20 158 227
28 161 229  36 167 231  46 171 233  54 175 234  63 181 236  71 186 239
55 166 229  30 122 205  30 122 205  63 169 230  115 214 249  50 156 224
0 0 0  0 0 0  0 0 0  0 79 170  0 75 167  0 97 189
1 146 223  1 151 226  1 148 224  0 147 223  1 147 224  10 153 226
16 156 227  25 159 228  36 167 231  46 171 233  51 170 234  34 131 210
24 110 196  28 118 201  0 0 0  32 123 205  46 142 215  46 147 219
0 0 0  0 0 0  0 0 0  0 0 0  0 0 0  0 78 169
0 74 166  6 104 194  1 124 209  3 154 228  1 152 227  1 151 226
3 154 228  13 155 227  22 141 219  25 124 206  18 98 187  23 106 194
0 0 0  0 0 0  0 0 0  0 0 0  34 126 206  35 127 207
0 0 0  0 0 0  0 0 0  0 0 0  0 0 0  0 0 0
0 79 171  0 78 169  0 76 169  0 74 166  0 78 169  4 97 187
5 79 172  8 84 175  10 90 181  15 94 183  0 0 0  0 0 0
0 0 0  0 0 0  0 0 0  0 0 0  0 0 0  35 127 207
